<svg id="svg" fill="#000000" stroke="#000000" width="200px" height="200px" version="1.1" viewBox="144 144 512 512" xmlns="http://www.w3.org/2000/svg">
    <g id="IconSvg_bgCarrier" stroke-width="0"></g>
    <g id="IconSvg_tracerCarrier" stroke-linecap="round" stroke-linejoin="round" stroke="#CCCCCC"></g>
     <g id="IconSvg_iconCarrier">
      <path xmlns="http://www.w3.org/2000/svg" d="m573.1 359.02-6.8008-0.23828c-3.1523-12.77-7.7539-25.082-13.727-36.762l4.9609-4.625c13.129-12.246 13.852-32.883 1.6094-46.012l-19.719-21.156c-5.9102-6.3398-13.969-10-22.672-10.301-8.75-0.32422-16.996 2.7812-23.336 8.6992l-4.9609 4.625c-11.238-6.7852-23.199-12.23-35.715-16.266l0.23828-6.7969c0.62891-17.938-13.453-33.047-31.395-33.672l-28.902-1.0117c-8.6055-0.32422-16.945 2.8008-23.32 8.7461-6.375 5.9414-10.051 13.988-10.355 22.652l-0.23828 6.7969c-12.766 3.1523-25.082 7.7461-36.762 13.727l-4.625-4.9609c-12.242-13.125-32.875-13.852-46.012-1.6094l-21.148 19.719c-6.3398 5.9102-10 13.961-10.309 22.672-0.30469 8.707 2.7812 16.996 8.6992 23.336l4.625 4.9609c-6.7812 11.238-12.23 23.199-16.266 35.715l-6.7969-0.23828c-17.848-0.53125-33.039 13.453-33.672 31.395l-1.0117 28.902c-0.30469 8.668 2.8008 16.945 8.7461 23.32 5.9414 6.375 13.988 10.051 22.652 10.355l6.7969 0.23828c3.1523 12.766 7.7461 25.082 13.727 36.762l-4.9609 4.625c-13.125 12.246-13.852 32.883-1.6094 46.012l19.719 21.148c5.9102 6.3438 13.961 10.004 22.672 10.309 8.7227 0.29297 16.996-2.7852 23.336-8.6992l4.9609-4.6328c11.242 6.7852 23.207 12.234 35.715 16.266l-0.23828 6.7969c-0.30469 8.6641 2.8008 16.945 8.7461 23.32 5.9414 6.3711 13.984 10.051 22.652 10.355l28.902 1.0117c0.38672 0.011719 0.76953 0.019531 1.1523 0.019531 17.426 0 31.906-13.859 32.516-31.41l0.23828-6.8008c12.77-3.1523 25.082-7.7539 36.762-13.727l4.625 4.9609c12.242 13.129 32.883 13.852 46.012 1.6094l21.148-19.719c6.3438-5.9102 10.004-13.961 10.309-22.672 0.30469-8.707-2.7852-16.996-8.6992-23.336l-4.6328-4.9609c6.7852-11.242 12.234-23.207 16.266-35.715l6.7969 0.23828c8.625 0.29688 16.945-2.8008 23.32-8.7461 6.3711-5.9414 10.051-13.984 10.355-22.652l1.0117-28.902c0.63281-17.941-13.449-33.039-31.387-33.672zm10.871 61.891c-0.24609 7.1836-6.3438 12.895-13.473 12.562l-14.34-0.50391c-4.5703-0.11719-8.5664 2.8164-9.7578 7.1875-4.2891 15.695-11.031 30.508-20.051 44.027-2.5156 3.7617-2.1094 8.7656 0.97656 12.074l9.7734 10.477c2.3594 2.5234 3.5898 5.8438 3.4648 9.3398-0.11719 3.4961-1.5781 6.7188-4.1094 9.0742l-21.148 19.727c-5.2578 4.8945-13.52 4.6133-18.414-0.64453l-9.7734-10.477c-3.0938-3.3164-8.0508-4.0664-11.977-1.8203-14.09 8.0469-29.34 13.742-45.316 16.926-4.4375 0.88281-7.6875 4.7109-7.8438 9.2344l-0.50391 14.34c-0.25 7.1836-6.3594 12.859-13.48 12.562l-28.902-1.0117c-7.1758-0.25-12.816-6.2969-12.562-13.473l0.50391-14.34c0.16016-4.5273-2.8164-8.5664-7.1875-9.7578-15.695-4.2891-30.508-11.031-44.027-20.051-1.6484-1.1016-3.5352-1.6445-5.4141-1.6445-2.4102 0-4.8008 0.89062-6.6641 2.6211l-10.477 9.7734c-2.5234 2.3594-5.8516 3.5977-9.3398 3.4648-3.4961-0.11719-6.7188-1.5781-9.0742-4.1094l-19.727-21.156c-4.8984-5.2539-4.6133-13.516 0.64453-18.414l10.477-9.7734c3.3125-3.0898 4.0664-8.0469 1.8203-11.977-8.0469-14.098-13.742-29.34-16.926-45.316-0.88281-4.4375-4.7031-7.6875-9.2344-7.8438l-14.34-0.50391c-3.4531-0.11719-6.668-1.5938-9.0586-4.1523-2.3867-2.5586-3.6289-5.8711-3.5117-9.3203l1.0117-28.902c0.25-7.1758 6.2773-12.844 13.48-12.57l14.34 0.50391c4.582 0.15234 8.5664-2.8164 9.7578-7.1875 4.2891-15.699 11.031-30.512 20.051-44.027 2.5156-3.7617 2.1094-8.7656-0.98047-12.074l-9.7734-10.477c-2.3594-2.5234-3.5898-5.8438-3.4648-9.3398 0.11719-3.4961 1.5781-6.7188 4.1094-9.0781l21.148-19.719c5.2539-4.8984 13.52-4.6133 18.414 0.64453l9.7734 10.477c3.0938 3.3125 8.0508 4.0625 11.977 1.8203 14.098-8.0469 29.34-13.738 45.316-16.926 4.4375-0.88281 7.6875-4.7031 7.8438-9.2344l0.50391-14.34c0.11719-3.4531 1.5938-6.668 4.1523-9.0586 2.5586-2.3867 5.8867-3.5977 9.3203-3.5117l28.902 1.0117c7.1758 0.25 12.816 6.2969 12.562 13.48l-0.50391 14.34c-0.16016 4.5234 2.8164 8.5664 7.1875 9.7578 15.707 4.2891 30.516 11.031 44.027 20.051 3.7617 2.5195 8.7656 2.1094 12.074-0.98047l10.477-9.7734c2.5234-2.3555 5.8047-3.582 9.3398-3.4648 3.4961 0.125 6.7188 1.582 9.0742 4.1094l19.719 21.156c4.8984 5.2539 4.6133 13.516-0.64453 18.414l-10.477 9.7734c-3.3125 3.0898-4.0664 8.0469-1.8203 11.977 8.0469 14.09 13.742 29.34 16.926 45.316 0.88281 4.4375 4.7109 7.6875 9.2344 7.8438l14.34 0.50391c7.1758 0.25 12.816 6.2969 12.562 13.48zm-180.08-132.23c-29.734-1.0352-58.098 9.5625-79.859 29.852-44.926 41.887-47.395 112.51-5.5117 157.44 21.91 23.492 51.668 35.379 81.508 35.375 27.215-0.003906 54.5-9.8906 75.926-29.867 21.762-20.293 34.32-47.84 35.359-77.578 1.043-29.734-9.5625-58.098-29.848-79.859-20.289-21.766-47.84-34.324-77.574-35.363zm87.914 114.54c-0.85938 24.523-11.211 47.246-29.164 63.98-37.047 34.551-95.297 32.512-129.84-4.5391-34.547-37.051-32.508-95.301 4.543-129.84 17.145-15.988 39.25-24.676 62.57-24.676 1.0938 0 2.1914 0.019532 3.2891 0.054688 24.523 0.85938 47.246 11.211 63.98 29.164 16.742 17.945 25.48 41.336 24.621 65.859z"></path>

      </g>
      </svg>