<svg id="svg" fill="#000000" stroke="#000000" width="200px" height="200px" version="1.1" viewBox="144 144 512 512" xmlns="http://www.w3.org/2000/svg">
    <g id="IconSvg_bgCarrier" stroke-width="0"></g>
    <g id="IconSvg_tracerCarrier" stroke-linecap="round" stroke-linejoin="round" stroke="#CCCCCC"></g>
     <g id="IconSvg_iconCarrier">
      <defs xmlns="http://www.w3.org/2000/svg">
  <clipPath id="a">
   <path d="m148.09 148.09h503.81v503.81h-503.81z"></path>
  </clipPath>
 </defs>
<g xmlns="http://www.w3.org/2000/svg" clip-path="url(#a)">
  <path d="m578.13 222.03c-47.602-47.496-110.82-73.664-178.13-73.664s-130.53 26.172-178.13 73.664c-47.492 47.496-73.77 110.71-73.77 177.92 0 67.203 26.172 130.42 73.773 177.92 47.602 47.496 110.82 73.664 178.13 73.664s130.53-26.172 178.13-73.664c47.602-47.496 73.773-110.71 73.773-177.92-0.003906-67.203-26.172-130.42-73.777-177.92zm-178.13 420.99c-134.19 0-243.29-108.99-243.29-243.07 0-133.98 109.1-242.96 243.29-242.96s243.29 108.99 243.29 242.96c0 133.98-109.1 243.07-243.29 243.07z"></path>
 </g>
<path xmlns="http://www.w3.org/2000/svg" d="m485.62 289.77h-171.24c-13.57 0-24.664 11.094-24.664 24.664v171.02c0 13.57 11.094 24.664 24.664 24.664h171.24c13.57 0 24.664-11.094 24.664-24.664v-171.02c0-13.57-11.094-24.664-24.664-24.664zm16.047 195.69c0 8.832-7.2148 16.047-16.047 16.047h-171.24c-8.832 0-16.047-7.2148-16.047-16.047v-171.02c0-8.832 7.2148-16.047 16.047-16.047h171.24c8.832 0 16.047 7.2148 16.047 16.047z"></path>
<path xmlns="http://www.w3.org/2000/svg" d="m457.4 329.08h-114.81c-7.6484 0-13.895 6.2461-13.895 13.895v114.16c0 7.6484 6.2461 13.785 13.895 13.785h114.8c7.6484 0 13.895-6.2461 13.895-13.785v-114.16c0-7.7539-6.2461-13.895-13.891-13.895zm5.2773 127.95c0 2.8008-2.3711 5.168-5.2773 5.168l-114.81 0.003906c-2.8008 0-5.2773-2.3711-5.2773-5.168v-114.16c0-2.9062 2.3711-5.2773 5.2773-5.2773h114.8c2.9062 0 5.2773 2.3711 5.2773 5.2773z"></path>

      </g>
      </svg>