<svg id="svg" fill="#000000" stroke="#000000" width="200px" height="200px" version="1.1" viewBox="144 144 512 512" xmlns="http://www.w3.org/2000/svg">
    <g id="IconSvg_bgCarrier" stroke-width="0"></g>
    <g id="IconSvg_tracerCarrier" stroke-linecap="round" stroke-linejoin="round" stroke="#CCCCCC"></g>
     <g id="IconSvg_iconCarrier">
      <path xmlns="http://www.w3.org/2000/svg" d="m532.9 368.13c-2.9961-5.918-9.2969-7.8125-13.895-9.1953-0.73047-0.21484-1.4375-0.43359-2.0742-0.64453l-3.8984-1.3242c-16.078-5.7188-33.922 6.4219-39.152 21.098l-6.8164 19.148-0.75-156.94c0-16.434-13.371-29.805-29.805-29.805-6.418 0-12.352 2.0625-17.227 5.5234v-12.887c0.015625-7.9492-3.082-15.441-8.7305-21.094-5.6367-5.625-13.098-8.7227-21.035-8.7227h-0.070313c-7.9609 0.035156-15.426 3.1406-21.035 8.7422-5.6016 5.6055-8.707 13.078-8.7422 21.062v1.1367c-4.8633-3.457-10.781-5.5078-17.18-5.5078h-0.13672c-7.8711 0-15.305 3.0977-20.953 8.7422-5.6719 5.6797-8.7812 13.164-8.7422 21.059v30.484c-5.0117-3.4492-11.047-5.3867-17.211-5.3867-16.41 0-29.797 12.957-29.832 28.898v187.04c0.10938 16.105 2.6133 30.852 7.4375 43.828 4.4141 11.871 12.367 21.828 22.41 28.902l0.003906 64.531c0 10.973 8.9258 19.902 19.906 19.902l117.88-0.003906c10.973 0 19.902-8.9258 19.902-19.902v-53.879c36.34-10.316 57.176-76.082 63.027-97.426 0.011718-0.039062 0-0.082031 0.011718-0.12109 0.015625-0.050781 0.046875-0.085937 0.058594-0.13672l16.844-73.621c1.7695-5.1992 1.7031-9.7383-0.19531-13.496zm-99.648 245.99h-117.89c-4.0312 0-7.3086-3.2734-7.3086-7.3047v-57.625c7.3359 2.9922 15.301 4.6406 23.523 4.6797l108.98 0.46484-0.003906 52.48c0 4.0312-3.2734 7.3047-7.3047 7.3047zm87.844-236.35c-0.082031 0.23047-0.15234 0.46875-0.20703 0.71094l-16.887 73.812c-12.227 44.547-35.691 89.461-60.559 89.461l-111.81-0.47656c-20.836-0.097657-39.633-13.062-46.773-32.273-4.3086-11.594-6.543-24.887-6.6445-39.484l-0.003906-186.98c0.019531-8.9961 7.7539-16.32 17.234-16.32 4.6602 0 9.1953 1.8633 12.449 5.125 3.0664 3.0625 4.7617 7.043 4.7617 11.215v93.211c0 3.4766 2.8203 6.2969 6.2969 6.2969s6.2969-2.8203 6.2969-6.2969v-10.414l0.003906-82.805v-54.059c-0.019531-4.5352 1.7773-8.8438 5.0547-12.121 3.2578-3.2578 7.5352-5.0547 12.07-5.0547h0.082032c9.4922 0 17.211 7.7188 17.211 17.207v146.86c0 3.4766 2.8203 6.2969 6.2969 6.2969s6.2969-2.8203 6.2969-6.2969v-172.26c0.019531-4.6133 1.8125-8.9375 5.0547-12.184 3.2422-3.2422 7.5625-5.0352 12.168-5.0547h0.039063c4.5586 0 8.8633 1.7891 12.113 5.0391 3.2578 3.2578 5.0469 7.582 5.0391 12.172l0.011718 74.273v103.97c0 2.6133 1.5977 4.8555 3.8633 5.8047 0.75391 0.31641 1.582 0.5 2.4531 0.5 3.4766 0 6.2969-2.8203 6.2969-6.2969l-0.015626-103.97v-37.09c0-9.4922 7.7227-17.211 17.215-17.211 9.4922 0 17.211 7.7188 17.211 17.242l0.91797 191.89c0 0.20703 0.10156 0.38281 0.12109 0.58984-0.1875 2.7422 1.3438 5.3867 4.0664 6.3516 3.2695 1.1523 6.8789-0.54297 8.0469-3.8242l18.883-53.031c3.0977-8.707 14.066-16.645 23.145-13.426l4.0117 1.3672c0.78516 0.26172 1.6172 0.51562 2.4727 0.76953 2.1406 0.64062 5.7227 1.7188 6.2812 2.8164 0.18359 0.35156 0.26953 1.5977-0.56641 3.9453z"></path>

      </g>
      </svg>